<?xml version="1.0" encoding="iso-8859-1"?>
<!-- Generator: Adobe Illustrator 19.0.0, SVG Export Plug-In . SVG Version: 6.00 Build 0)  -->
<svg version="1.1" id="Layer_1" xmlns="http://www.w3.org/2000/svg" xmlns:xlink="http://www.w3.org/1999/xlink" x="0px" y="0px"
	 viewBox="0 0 512 512" style="enable-background:new 0 0 512 512;" xml:space="preserve">
<path style="fill:#91006F;" d="M469.061,203.927l-37.757,7.551V100.174l37.757,7.551c10.405,2.081,17.896,11.217,17.896,21.829
	v52.545C486.957,192.71,479.467,201.846,469.061,203.927z"/>
<path style="fill:#4F0044;" d="M453.565,207.026l-22.261,4.452V100.174l22.261,4.452V207.026z"/>
<path style="fill:#D2D6CE;" d="M336.696,267.13H25.043V89.043h311.652V267.13z"/>
<path style="fill:#A5A8A0;" d="M102.957,278.261H25.043V77.913h77.913V278.261z"/>
<path style="fill:#FF5200;" d="M392.348,33.391H372.87v-2.783C372.87,13.731,359.139,0,342.261,0H320
	c-16.878,0-30.609,13.731-30.609,30.609v2.783h-19.478H47.304c-12.295,0-22.261,9.966-22.261,22.261v44.522h77.913h183.652
	c12.295,0,22.261,9.966,22.261,22.261v111.304c0,12.295-9.966,22.261-22.261,22.261H102.957H25.043v200.348
	c0,12.295,9.966,22.261,22.261,22.261h242.087v2.783c0,16.878,13.73,30.609,30.609,30.609h22.261
	c16.878,0,30.609-13.73,30.609-30.609v-2.783h19.478c24.588,0,44.522-19.934,44.522-44.522V77.913
	C436.87,53.325,416.936,33.391,392.348,33.391z M356.174,481.391c0,7.672-6.241,13.913-13.913,13.913H320
	c-7.672,0-13.913-6.241-13.913-13.913v-2.783h50.087V481.391z M356.174,33.391h-50.087v-2.783c0-7.672,6.241-13.913,13.913-13.913
	h22.261c7.672,0,13.913,6.241,13.913,13.913V33.391z"/>
<path style="fill:#CC0000;" d="M25.043,256h77.913v222.609H47.304c-12.295,0-22.261-9.966-22.261-22.261V256z M47.304,33.391
	c-12.295,0-22.261,9.966-22.261,22.261v44.522h77.913V33.391H47.304z"/>
<path style="fill:#A5A8A0;" d="M250.435,144.696c0,4.61-3.738,8.348-8.348,8.348H141.913c-4.61,0-8.348-3.738-8.348-8.348
	c0-4.61,3.738-8.348,8.348-8.348h100.174C246.697,136.348,250.435,140.085,250.435,144.696z M175.304,169.739h-33.391
	c-4.61,0-8.348,3.738-8.348,8.348c0,4.61,3.738,8.348,8.348,8.348h33.391c4.61,0,8.348-3.738,8.348-8.348
	C183.652,173.477,179.915,169.739,175.304,169.739z M209.809,169.739h-1.113c-4.61,0-8.348,3.738-8.348,8.348
	c0,4.61,3.738,8.348,8.348,8.348h1.113c4.61,0,8.348-3.738,8.348-8.348C218.157,173.477,214.419,169.739,209.809,169.739z"/>
<path style="fill:#2C4D67;" d="M372.87,30.609v450.783c0,16.878-13.73,30.609-30.609,30.609H320
	c-16.878,0-30.609-13.73-30.609-30.609v-2.783h16.696v2.783c0,7.672,6.241,13.913,13.913,13.913h22.261
	c7.672,0,13.913-6.241,13.913-13.913V30.609c0-7.672-6.241-13.913-13.913-13.913H320c-7.672,0-13.913,6.241-13.913,13.913v2.783
	h-16.696v-2.783C289.391,13.731,303.122,0,320,0h22.261C359.139,0,372.87,13.731,372.87,30.609z"/>
<g>
</g>
<g>
</g>
<g>
</g>
<g>
</g>
<g>
</g>
<g>
</g>
<g>
</g>
<g>
</g>
<g>
</g>
<g>
</g>
<g>
</g>
<g>
</g>
<g>
</g>
<g>
</g>
<g>
</g>
</svg>
